<svg xmlns="http://www.w3.org/2000/svg" xmlns:xlink="http://www.w3.org/1999/xlink" width="500" zoomAndPan="magnify" viewBox="0 0 375 374.999991" height="500" preserveAspectRatio="xMidYMid meet" version="1.0"><defs><clipPath id="916fec4fef"><path d="M 156 76.183594 L 219 76.183594 L 219 188 L 156 188 Z M 156 76.183594 " clip-rule="nonzero"/></clipPath><clipPath id="ad9d18d653"><path d="M 156 187 L 219 187 L 219 298.933594 L 156 298.933594 Z M 156 187 " clip-rule="nonzero"/></clipPath></defs><g clip-path="url(#916fec4fef)"><path fill="#031fd0" d="M 187.496094 76.210938 C 170.539062 76.210938 156.796875 89.957031 156.796875 106.914062 C 156.796875 123.875 187.496094 187.496094 187.496094 187.496094 C 187.496094 187.496094 218.199219 123.875 218.199219 106.914062 C 218.199219 89.957031 204.457031 76.210938 187.496094 76.210938 Z M 187.496094 76.210938 " fill-opacity="1" fill-rule="nonzero"/></g><path fill="#031fd0" d="M 133.066406 120.613281 C 118.378906 112.132812 99.601562 117.167969 91.121094 131.855469 C 82.644531 146.539062 87.675781 165.320312 102.363281 173.796875 C 117.050781 182.277344 187.496094 187.496094 187.496094 187.496094 C 187.496094 187.496094 147.753906 129.09375 133.066406 120.613281 Z M 133.066406 120.613281 " fill-opacity="1" fill-rule="nonzero"/><path fill="#031fd0" d="M 91.121094 243.136719 C 99.601562 257.824219 118.378906 262.859375 133.066406 254.378906 C 147.753906 245.898438 187.496094 187.496094 187.496094 187.496094 C 187.496094 187.496094 117.050781 192.714844 102.363281 201.195312 C 87.675781 209.671875 82.644531 228.449219 91.121094 243.136719 Z M 91.121094 243.136719 " fill-opacity="1" fill-rule="nonzero"/><g clip-path="url(#ad9d18d653)"><path fill="#031fd0" d="M 187.496094 298.777344 C 204.457031 298.777344 218.199219 285.035156 218.199219 268.078125 C 218.199219 251.117188 187.496094 187.496094 187.496094 187.496094 C 187.496094 187.496094 156.796875 251.117188 156.796875 268.078125 C 156.796875 285.035156 170.539062 298.777344 187.496094 298.777344 Z M 187.496094 298.777344 " fill-opacity="1" fill-rule="nonzero"/></g><path fill="#031fd0" d="M 272.632812 201.195312 C 257.945312 192.714844 187.496094 187.496094 187.496094 187.496094 C 187.496094 187.496094 227.242188 245.898438 241.929688 254.378906 C 256.617188 262.859375 275.394531 257.824219 283.871094 243.136719 C 292.351562 228.449219 287.316406 209.671875 272.632812 201.195312 Z M 272.632812 201.195312 " fill-opacity="1" fill-rule="nonzero"/><path fill="#031fd0" d="M 283.871094 131.855469 C 275.394531 117.167969 256.617188 112.132812 241.929688 120.613281 C 227.242188 129.09375 187.496094 187.496094 187.496094 187.496094 C 187.496094 187.496094 257.945312 182.277344 272.632812 173.796875 C 287.316406 165.320312 292.351562 146.539062 283.871094 131.855469 Z M 283.871094 131.855469 " fill-opacity="1" fill-rule="nonzero"/></svg>